# xmcd
#
# Track frame offsets: 
#        150
#        17620
#        28815
#        40368
#        58892
#        74772
#        88895
#        102442
#        112906
#        129529
#        141197
#        156086
#        166139
#        179977
#        194267
#        209725
#        225547
#        242500
#
# Disc length: 3528 seconds
#
# Revision: 0
# Processed by: cddbd v1.5.2PL0 Copyright (c) Steve Scherf et al.
# Submitted via: ExactAudioCopyFreeDBPlugin 1.0
#
DISCID=0d0dc612
DTITLE=Bob Bovee - Rails, Trails and Tall Tales
DYEAR=2016
DGENRE=Country
TTITLE0=Starvin' to Death on A Government Claim
TTITLE1=Colorado Prisoner
TTITLE2=Black Hammer Strut
TTITLE3=The House Carpenter
TTITLE4=I Saw a Man at the Close of Day
TTITLE5=Old Weary Blues
TTITLE6=Back to My Wyoming Home
TTITLE7=Shout Lulu
TTITLE8=My Texas Girl
TTITLE9=Steamboat Bill
TTITLE10=The Poor Tramp Has to Live
TTITLE11=Elzic's Farewell
TTITLE12=Niagara
TTITLE13=The Popular Wobbly
TTITLE14=The Mowin' Machine
TTITLE15=The Titanic
TTITLE16=The Bronc That Wouldn't Bust
TTITLE17=A Bad Half Hour
EXTD=
EXTT0=
EXTT1=
EXTT2=
EXTT3=
EXTT4=
EXTT5=
EXTT6=
EXTT7=
EXTT8=
EXTT9=
EXTT10=
EXTT11=
EXTT12=
EXTT13=
EXTT14=
EXTT15=
EXTT16=
EXTT17=
PLAYORDER=
